<svg width="33" height="32" viewBox="0 0 33 32" fill="none" xmlns="http://www.w3.org/2000/svg">
<path fill-rule="evenodd" clip-rule="evenodd" d="M16.5482 31.8708C25.3135 31.8708 32.4192 24.7652 32.4192 15.9999C32.4192 7.23459 25.3135 0.128906 16.5482 0.128906C7.78291 0.128906 0.677246 7.23459 0.677246 15.9999C0.677246 24.7652 7.78291 31.8708 16.5482 31.8708ZM21.4994 7.52227C21.7404 6.6662 20.9097 6.15998 20.151 6.70052L9.55953 14.2458C8.7367 14.832 8.86613 15.9999 9.75395 15.9999H12.543V15.9783H17.9786L13.5496 17.541L11.5971 24.4775C11.356 25.3336 12.1867 25.8398 12.9455 25.2992L23.5369 17.754C24.3598 17.1678 24.2303 15.9999 23.3425 15.9999H19.1131L21.4994 7.52227Z" fill="#A8FF35"/>
</svg>
